<svg width="128" height="128" viewBox="0 0 128 128" fill="none" xmlns="http://www.w3.org/2000/svg">
<path d="M110.513 111.385C108.238 116.447 106.189 120.092 103.615 121.11C97.8678 123.382 96.8548 123.718 87.167 124.146H84.0367C80.8557 124.096 77.7719 124.098 74.5909 124.049H73.4176C70.971 124.049 68.5722 124.047 66.0778 123.95H65.245C62.2117 123.95 59.1771 123.902 56.1424 123.902H54.5766C52.13 123.902 49.6834 123.902 47.1876 123.853H43.3707C38.4776 123.798 35.1433 123.555 32.6404 123.034C29.088 122.296 27.2113 120.997 24.9391 118.883C21.066 115.278 18.8684 112.654 18.1439 108.145C17.9497 107.95 17.3026 104.102 17.2041 103.906C18.1172 97.0406 17.9666 95.6886 18.8966 92.9438C19.8912 90.0076 20.5187 87.9353 22.916 85.635C23.3072 85.2439 23.6997 84.9006 24.1893 84.6066C25.4133 83.8244 26.8792 83.2855 28.348 82.7467C34.9548 80.4464 43.6648 77.7565 50.5149 75.3577C51.0537 75.1129 51.5433 74.9666 52.0329 74.8203L60.8907 75.0159L69.5022 75.2114L78.2136 75.407C78.7018 75.5533 79.3391 75.7981 80.0721 76.0429C81.2961 76.4833 82.6664 76.9728 83.3994 77.1684C84.2323 77.4624 85.0637 77.7072 85.8952 78.0491C88.5866 78.8806 91.2794 79.8119 93.9215 80.6434C94.117 80.6926 94.2634 80.7405 94.4097 80.7897C94.8993 80.9853 95.4381 81.133 95.9755 81.2793C97.2473 81.7689 98.5698 82.16 99.8909 82.6004C101.212 83.0407 102.631 83.5303 103.905 84.117C104.099 84.2633 104.294 84.3618 104.49 84.5081C104.539 84.5081 104.588 84.5574 104.638 84.5574C105.077 84.8514 105.518 85.1454 105.959 85.5365C106.741 86.2217 107.329 87.0053 107.72 87.8368C107.867 88.1308 108.013 88.3742 108.111 88.6683C108.307 88.9623 108.405 89.2563 108.504 89.5982C108.846 90.5282 109.041 91.4089 109.237 92.3388C109.677 93.9539 110.119 95.5676 110.558 97.1827C111.243 99.8249 111.36 109.503 110.513 111.385Z" fill="#6F6ECF"/>
<path d="M67.4922 79.4746C67.4387 79.9572 66.6903 80.2779 66.3146 80.4383C63.1548 82.4192 59.7825 84.1342 57.6398 87.2927C57.2121 87.8287 56.8378 88.4167 56.5157 89.0597C56.3553 89.327 56.3004 89.7026 56.14 89.9699C56.0331 90.0769 56.0331 90.1303 55.9811 90.1838C55.7672 90.3976 55.6589 90.2373 55.4985 89.9165C55.0159 88.8458 54.5348 87.7738 54.1057 86.7032C53.1954 84.6153 52.4456 82.4206 51.7506 80.2779C51.268 78.8851 50.8924 77.5472 50.6785 76.2078C50.6265 75.9405 50.5716 75.6183 50.5195 75.351C51.0541 75.1372 51.5353 74.9768 52.0165 74.8164L60.9066 75.0303C61.5481 75.5663 62.2459 76.0488 62.9409 76.4765C63.906 77.066 64.8683 77.4937 65.7786 78.0832C66.2077 78.3505 66.6354 78.6178 67.011 78.8851C67.2249 79.0455 67.4922 79.2073 67.4922 79.4746Z" fill="#3F3E8A"/>
<path d="M80.0765 76.0482C80.0217 76.1017 80.0217 76.1551 80.0217 76.2086C79.8092 77.5479 79.4336 78.8859 78.951 80.2787C78.256 82.4214 77.5048 84.6161 76.5945 86.7039C76.1654 87.7746 75.6857 88.8452 75.2031 89.9159C75.0427 90.2366 74.9344 90.3984 74.7219 90.1846C74.6671 90.1311 74.6671 90.0776 74.5602 89.9707C74.4012 89.7034 74.3463 89.3278 74.1859 89.0605C73.8637 88.4175 73.4895 87.8294 73.0618 87.2934C70.9191 84.135 67.5454 82.42 64.3856 80.4391C64.0113 80.2787 63.2615 79.9579 63.208 79.4754C63.208 79.2081 63.4767 79.0463 63.6906 78.8859C64.0648 78.6186 64.4925 78.3499 64.9216 78.0826C65.8318 77.4931 66.7956 77.0654 67.7607 76.4759C68.3488 76.1017 68.9917 75.674 69.5263 75.1914L78.2012 75.4053C78.6823 75.5656 79.3267 75.7809 80.0765 76.0482Z" fill="#3F3E8A"/>
<path d="M75.0044 121.315C75.1409 121.825 75.2675 122.339 75.3533 122.865C75.3998 123.151 75.4377 123.457 75.3182 123.72C75.0677 124.269 73.9465 124.026 73.4343 124.026C70.9709 124.026 68.5623 124.026 66.0989 123.972H65.2435C62.1905 123.972 59.1925 123.919 56.1395 123.919C55.83 123.919 55.5191 123.919 55.2096 123.919C54.7945 123.919 54.4316 124.054 54.3007 123.529C54.2501 123.324 54.2712 123.11 54.2937 122.9C54.5047 120.967 54.8846 119.054 55.4276 117.187C55.6668 116.365 55.754 115.438 55.9144 114.591C56.1803 113.187 56.4434 111.782 56.7093 110.378C57.0512 108.567 57.3945 106.758 57.7363 104.947C58.0993 103.025 58.4623 101.105 58.8253 99.183C59.1531 97.4455 59.4823 95.708 59.8101 93.9705C60.0478 92.7113 60.2856 91.4536 60.5234 90.1944C60.6148 89.709 60.7063 89.2237 60.7977 88.7383L61.3337 89.3812C62.3509 89.3812 63.0473 89.2743 63.6903 89.2208C64.3318 89.1139 64.9748 89.0591 65.6698 89.0591C66.5265 89.0591 67.4382 89.1674 68.5088 89.3812L68.4554 88.7383C68.6594 89.7752 68.8634 90.8106 69.0674 91.8475C69.5612 94.3503 70.0536 96.8532 70.5474 99.356C71.151 102.422 71.7559 105.486 72.3595 108.551C72.8955 111.274 73.4315 113.996 73.9676 116.718C74.1195 117.492 74.2728 118.266 74.4248 119.04C74.5767 119.811 74.8018 120.559 75.0044 121.315Z" fill="#3F3E8A"/>
<path d="M73.4626 123.48C73.4626 123.664 73.4401 123.847 73.4176 124.031C70.9809 124.031 68.5442 124.009 66.0835 123.986H65.2324C62.1977 123.964 59.187 123.94 56.1523 123.917C56.2213 121.894 56.6574 119.916 57.071 117.893L60.9104 88.6734C64.3587 88.6734 64.9566 87.7773 68.336 88.6045L73.4626 123.48Z" fill="#FDE77A"/>
<path d="M76.0051 72.779C72.5794 75.2424 68.9904 76.5804 65.2945 78.723C61.8688 75.9923 58.6006 74.4391 55.1748 71.7083C55.2283 70.1551 55.2831 68.5485 55.2831 66.9418V63.3008C58.495 64.854 61.8153 66.1933 65.4028 66.4606C68.9918 66.6745 72.9536 65.4955 75.7913 63.3008V63.4612C75.7378 64.2645 75.7378 65.0678 75.6844 65.8712C75.6844 66.1385 75.6844 66.4606 75.6309 66.7279C75.5774 68.5485 75.5226 70.262 75.4691 72.0291C75.7364 72.3499 75.7927 72.4582 76.0051 72.779Z" fill="#F7D78A"/>
<path d="M57.5241 79.6755C57.9462 79.1704 59.3404 79.3533 59.8075 79.3533C61.7181 79.3533 63.6286 79.3533 65.5391 79.3533C67.316 79.3533 69.0943 79.3533 70.8712 79.3533C71.223 79.3533 71.8659 79.2056 72.1402 79.5011C72.4484 79.8331 72.0924 80.3747 71.9489 80.7096C71.5733 81.5832 71.2004 82.4583 70.8248 83.332C70.0609 85.1117 69.2969 86.8928 68.533 88.6725C68.2333 89.3703 67.914 89.5139 67.188 89.5251C66.6604 89.5335 66.1329 89.5406 65.6053 89.549C64.6852 89.5631 63.7651 89.5786 62.845 89.5926C62.0698 89.6039 61.4254 89.7629 60.7951 89.2057C60.473 88.9216 60.3914 88.5628 60.2521 88.1675C59.5838 86.2822 58.9141 84.3956 58.2459 82.5104C58.0897 82.0714 57.9363 81.6325 57.7802 81.1935C57.6648 80.8671 57.465 80.4957 57.4116 80.1539C57.3792 79.9499 57.4256 79.7937 57.5241 79.6755Z" fill="#F8C73B"/>
<path d="M74.722 87.927C74.6812 87.8848 74.639 87.8257 74.5911 87.7455C74.4476 87.505 74.3857 87.2236 74.2521 86.9788C73.9735 86.4681 73.6668 85.9729 73.3362 85.4945C71.5283 82.8763 68.7202 81.4371 66.0767 79.822C65.7925 79.6489 65.158 79.3943 65.1144 79.0088C65.0876 78.7753 65.3282 78.6275 65.497 78.5108C65.8305 78.28 66.1723 78.0423 66.517 77.8284C67.2866 77.3529 68.1166 76.9773 68.8848 76.4919C70.4099 75.5282 71.8435 74.4153 73.1491 73.1702C73.6485 72.6947 74.148 72.1868 74.8007 71.9364C75.5577 71.6452 76.4271 71.7451 77.1826 72.0377C78.1646 72.419 78.7864 73.1125 79.1494 74.1185C79.421 74.8726 79.2859 75.4817 79.1452 76.2527C78.9398 77.3881 78.6176 78.4981 78.2518 79.6461C77.668 81.4723 77.0081 83.2731 76.2766 85.0443C75.9094 85.9307 75.5197 86.8072 75.1229 87.6808C74.9865 87.9805 74.8781 88.0916 74.722 87.927Z" fill="#595AB7"/>
<path d="M56.0486 87.6412C56.0894 87.599 56.1316 87.5385 56.1794 87.4583C56.3229 87.2177 56.3848 86.9364 56.5185 86.6916C56.797 86.1809 57.1023 85.6856 57.4329 85.2073C59.2408 82.5891 62.0503 81.1498 64.6939 79.5347C64.9781 79.3617 65.6126 79.1085 65.6562 78.723C65.6829 78.4894 65.4423 78.3403 65.2735 78.2235C64.9401 77.9928 64.5982 77.7564 64.2535 77.5426C63.4839 77.0671 62.6539 76.69 61.8857 76.2047C60.3607 75.2409 58.927 74.1295 57.6215 72.8844C57.122 72.4089 56.6226 71.8996 55.9698 71.6492C54.3153 71.0118 52.295 72.1092 51.6239 73.6821C51.3046 74.4334 51.4832 75.1903 51.6239 75.9655C51.8293 77.1008 52.1529 78.2109 52.5187 79.3589C53.1025 81.185 53.7624 82.9858 54.494 84.7571C54.8612 85.6434 55.2509 86.5199 55.6476 87.3936C55.7841 87.6933 55.8924 87.8058 56.0486 87.6412Z" fill="#595AB7"/>
<path d="M75.7928 63.4636C75.7393 64.2669 75.7379 65.0703 75.6844 65.8736C75.6844 66.1409 75.6844 66.4631 75.631 66.7304C73.3828 68.6578 70.811 69.9423 68.1337 70.4249C63.7442 71.3351 58.9777 70.0506 55.2832 66.9442V63.4102C58.4951 65.2841 61.8154 66.8908 65.4029 67.2116C68.9919 67.4789 72.9016 66.0875 75.7928 63.4636Z" fill="#EAC471"/>
<path d="M83.2032 53.3626C82.6025 54.4684 81.809 55.4771 81.0648 56.5337C78.7589 59.7527 76.8118 63.3571 73.6646 65.7601C70.9014 67.8746 67.2731 68.8833 63.7896 68.4753C60.3062 68.0913 57.0155 66.289 54.7814 63.5977C54.0371 62.7085 53.4111 61.7237 52.7864 60.7389C51.3936 58.5287 49.9754 56.3185 48.5826 54.1082C47.6161 52.5607 46.5384 50.9132 45.963 49.1729C45.3018 47.1765 45.0204 44.8284 45.0176 42.7336C45.0148 40.3672 45.5564 37.9389 46.9408 36.0185C48.3252 34.0981 50.6339 32.7644 52.996 32.9234C53.8275 32.9797 54.5183 33.0936 55.2752 32.7011C56.0504 32.2987 56.9156 32.0793 57.7837 31.8964C59.614 31.5109 61.4823 31.3674 63.3352 31.1268C66.9889 30.6527 70.6201 29.779 74.3019 29.893C77.9837 30.0069 81.8667 31.3027 84.015 34.2951C85.5907 36.4884 86.0367 39.2952 86.1197 41.9936C86.2449 46.0566 84.5159 49.4824 83.2032 53.3626Z" fill="#F7D78A"/>
<path d="M46.2306 53.2082C46.0843 53.2349 45.9057 53.1406 45.6848 52.855C45.2486 52.2895 45.1065 51.5255 44.8294 50.8812C44.4186 49.9259 44.0331 48.958 43.68 47.9802C41.3727 41.5986 40.3344 34.5135 42.3378 27.9082C44.3989 21.1101 49.6888 15.3686 56.2955 12.7575C62.6433 10.249 70.4136 10.8047 75.65 15.1815C75.9539 15.4348 76.193 16.0172 75.8132 16.1255C78.1163 13.8633 81.3999 14.1911 84.0702 16.0074C86.7405 17.8236 88.3063 20.8808 89.2574 23.9661C89.8848 26.0047 90.2956 28.1305 90.2197 30.2619C90.1282 32.8435 89.3319 35.3407 88.5427 37.8C87.6169 40.6855 86.6898 43.571 85.7641 46.4565C85.2956 47.9183 84.8271 49.3772 84.3586 50.839C84.2278 51.2456 84.0603 52.5188 83.6988 52.7664C83.1937 53.1125 83.3203 52.4091 83.3456 52.1066C83.3963 51.5044 83.4469 50.9023 83.4821 50.3001C83.5539 49.0973 83.589 47.8916 83.5961 46.6859C83.6101 44.3378 83.5201 41.9911 83.3893 39.6472C83.3077 38.1812 82.9559 36.4086 81.5673 35.933C81.2972 36.1188 80.5924 36.9207 80.2195 36.6351C79.9677 36.4423 80.0859 35.7825 80.1028 35.518C80.1182 35.2774 80.1211 33.2135 80.2575 33.1671C78.1739 33.9522 75.8146 34.2448 73.6002 34.0141C71.9077 33.8368 74.2065 32.4341 74.6539 32.043C75.0253 31.718 75.3883 31.3818 75.7414 31.0357C75.9201 30.8598 76.3999 30.1662 76.6278 30.124C73.8717 30.6347 71.1494 31.3241 68.4819 32.1879C67.1665 32.6142 65.8623 33.0813 64.5764 33.5906C64.1529 33.758 63.4045 34.2828 62.9627 34.2842C62.2593 34.287 62.5435 33.675 62.8136 33.3331C63.2961 32.7225 63.8026 32.1302 64.2978 31.5295C60.4148 32.4355 56.6331 33.7679 53.04 35.4969C51.7034 36.1399 50.3542 36.8686 49.4243 38.0251C48.303 39.4179 47.9287 41.2497 47.5897 43.0055C47.0283 45.9107 47.0902 48.8806 46.8032 51.8154C46.7596 52.267 46.6077 53.1392 46.2306 53.2082Z" fill="#B35B2E"/>
</svg>
